<?xml version="1.0" encoding="UTF-8" standalone="no"?>
<!-- Created with Inkscape (http://www.inkscape.org/) -->

<svg
   width="135.46666mm"
   height="135.46666mm"
   viewBox="0 0 135.46666 135.46666"
   version="1.1"
   id="svg13"
   inkscape:version="1.1.1 (3bf5ae0d25, 2021-09-20)"
   sodipodi:docname="matrix.svg"
   xmlns:inkscape="http://www.inkscape.org/namespaces/inkscape"
   xmlns:sodipodi="http://sodipodi.sourceforge.net/DTD/sodipodi-0.dtd"
   xmlns="http://www.w3.org/2000/svg"
   xmlns:svg="http://www.w3.org/2000/svg">
  <sodipodi:namedview
     id="namedview15"
     pagecolor="#ffffff"
     bordercolor="#666666"
     borderopacity="1.0"
     inkscape:pageshadow="2"
     inkscape:pageopacity="0.0"
     inkscape:pagecheckerboard="0"
     inkscape:document-units="mm"
     showgrid="false"
     inkscape:zoom="0.98782333"
     inkscape:cx="241.9461"
     inkscape:cy="253.58786"
     inkscape:window-width="1318"
     inkscape:window-height="720"
     inkscape:window-x="48"
     inkscape:window-y="48"
     inkscape:window-maximized="0"
     inkscape:current-layer="layer1" />
  <defs
     id="defs10" />
  <g
     inkscape:label="Ebene 1"
     inkscape:groupmode="layer"
     id="layer1"
     transform="translate(419.60433,-113.79995)">
    <path
       id="path109"
       style="stroke-width:1.01035"
       d="M 256 0 A 255.99999 255.99999 0 0 0 0 256 A 255.99999 255.99999 0 0 0 256 512 A 255.99999 255.99999 0 0 0 512 256 A 255.99999 255.99999 0 0 0 256 0 z M 125.4043 106 L 153.80664 106 L 153.80664 112.86133 L 133.37109 113.19922 L 133.37109 399.10156 L 153.90039 399.10156 L 153.90039 405.96289 L 125.4043 405.96289 L 125.4043 106 z M 358.09961 106.03711 L 386.5957 106.03711 L 386.5957 406 L 358.09961 406 L 358.09961 399.13867 L 378.62891 398.80078 L 378.62891 112.89844 L 358.09961 112.89844 L 358.09961 106.03711 z M 234.77734 200.87305 C 241.52648 200.87305 247.71356 202.1839 253.24414 204.80859 C 258.82155 207.42388 263.0863 212.03756 265.99219 218.68359 C 269.16057 213.99668 273.45343 209.86127 278.92773 206.30859 C 284.36455 202.71842 290.83294 200.92969 298.23828 200.92969 C 303.88134 200.92969 309.11193 201.62163 313.89258 202.99023 C 318.71076 204.37755 322.83485 206.58203 326.26562 209.61914 C 329.69645 212.64688 332.38736 216.61156 334.31836 221.52344 C 336.23998 226.41657 337.20508 232.30359 337.20508 239.24023 L 337.20508 310.76172 L 307.86523 310.76172 L 307.86523 250.20703 C 307.86523 246.61682 307.72495 243.24299 307.45312 240.08398 C 307.25737 237.20625 306.48655 234.39423 305.18359 231.81641 C 303.93688 229.46357 302.03565 227.5221 299.71094 226.22852 C 297.30187 224.85995 294.02917 224.16602 289.86719 224.16602 C 285.7427 224.16602 282.40631 224.96229 279.83789 226.53711 C 277.28822 228.13063 275.29121 230.19447 273.84766 232.74414 C 272.3572 235.43445 271.37336 238.38711 270.96094 241.43359 C 270.47349 244.68629 270.23047 247.96645 270.23047 251.27539 L 270.23047 310.79883 L 240.88867 310.79883 L 240.88867 250.80664 C 240.88867 247.63826 240.82451 244.49883 240.69336 241.43359 C 240.5864 238.49021 239.98984 235.59225 238.92969 232.8457 C 237.9173 230.24917 236.11885 228.04627 233.77539 226.53711 C 231.35695 224.96229 227.8123 224.16602 223.08789 224.16602 C 221.23188 224.24387 219.39431 224.55983 217.61328 225.10352 C 215.19484 225.80186 212.94627 226.99707 211.00586 228.60938 C 208.86865 230.33414 207.04983 232.81874 205.53125 236.05273 C 204.02205 239.29606 203.26367 243.53269 203.26367 248.80078 L 203.26367 310.85547 L 173.92188 310.85547 L 173.92188 203.99414 L 201.74414 203.82617 L 201.74414 218.26172 L 202.15625 218.26172 C 205.76517 212.97492 210.52685 208.60506 216.12305 205.41797 C 221.55986 202.39023 227.8407 200.87305 234.77734 200.87305 z "
       transform="matrix(0.26458333,0,0,0.26458333,-419.60433,113.79995)" />
  </g>
</svg>
